<svg xmlns="http://www.w3.org/2000/svg" xmlns:xlink="http://www.w3.org/1999/xlink" width="566" zoomAndPan="magnify" viewBox="0 0 424.5 211.499994" height="282" preserveAspectRatio="xMidYMid meet" version="1.0"><defs><g/></defs><g fill="#000000" fill-opacity="1"><g transform="translate(147.194642, 129.895882)"><g><path d="M 32.925781 0 L 32.972656 0 L 44.863281 -30.183594 L 44.175781 -30.183594 L 39.601562 -18.566406 C 39.191406 -17.515625 38.230469 -16.964844 37.316406 -16.964844 C 36.355469 -16.964844 35.394531 -17.515625 34.984375 -18.519531 L 34.160156 -20.578125 C 31.78125 -26.386719 26.113281 -30.183594 19.800781 -30.183594 L 22.5 -23.964844 L 20.304688 -18.382812 C 19.894531 -17.332031 18.933594 -16.828125 17.972656 -16.828125 C 17.058594 -16.828125 16.097656 -17.332031 15.6875 -18.382812 L 14.769531 -20.53125 C 12.394531 -26.339844 6.769531 -30.183594 0.457031 -30.183594 L 13.582031 0 L 13.628906 0 L 22.867188 -23.140625 Z M 32.925781 0 "/></g></g></g><g fill="#000000" fill-opacity="1"><g transform="translate(189.628738, 129.895882)"><g><path d="M 31.417969 -11.066406 L 30.867188 -11.066406 C 30.226562 -4.390625 26.15625 -1.644531 21.539062 -1.644531 C 15.6875 -1.644531 12.257812 -5.167969 12.257812 -15.273438 L 31.003906 -15.273438 C 31.28125 -26.25 24.742188 -30.730469 17.148438 -30.730469 C 8.003906 -30.730469 1.601562 -24.601562 1.601562 -15.410156 C 1.601562 -6.171875 8.507812 0 18.566406 0 C 25.378906 0 30.730469 -3.382812 31.417969 -11.066406 Z M 17.101562 -30.136719 C 21.585938 -30.136719 21.265625 -20.761719 21.265625 -15.824219 L 12.257812 -15.824219 C 12.300781 -25.0625 13.671875 -30.136719 17.101562 -30.136719 Z M 17.101562 -30.136719 "/></g></g></g><g fill="#000000" fill-opacity="1"><g transform="translate(219.808027, 129.895882)"><g><path d="M 23.277344 -11.019531 L 22.683594 -11.019531 C 22.5 -4.527344 19.207031 -2.515625 17.195312 -2.515625 C 15.046875 -2.515625 14.359375 -3.75 14.359375 -6.675781 L 14.359375 -29.496094 L 22.683594 -29.496094 L 22.683594 -30.089844 L 14.359375 -30.089844 C 14.359375 -34.34375 10.929688 -37.773438 6.675781 -37.773438 L 4.296875 -37.773438 L 4.296875 -30.089844 L 0.273438 -30.089844 L 0.273438 -29.496094 L 4.296875 -29.496094 L 4.296875 -9.695312 C 4.296875 -2.148438 9.328125 0 13.8125 0 C 18.246094 0 23.277344 -3.019531 23.277344 -11.019531 Z M 23.277344 -11.019531 "/></g></g></g><g fill="#000000" fill-opacity="1"><g transform="translate(241.024836, 129.895882)"><g><path d="M 22.867188 -30.136719 L 22.546875 -30.136719 L 22.546875 -15.367188 C 22.546875 -11.660156 21.722656 -2.789062 16.417969 -2.789062 C 14.039062 -2.789062 12.941406 -4.4375 12.941406 -7.910156 L 12.941406 -20.394531 C 12.941406 -25.792969 8.550781 -30.136719 3.199219 -30.136719 L 2.882812 -30.136719 L 2.882812 -10.472656 C 2.882812 -4.160156 6.3125 0 12.574219 0 C 18.886719 0 21.90625 -4.390625 22.867188 -10.65625 L 22.867188 -9.742188 C 22.867188 -4.34375 27.253906 0 32.605469 0 L 32.605469 -20.394531 C 32.605469 -25.792969 28.261719 -30.136719 22.867188 -30.136719 Z M 22.867188 -30.136719 "/></g></g></g><g fill="#000000" fill-opacity="1"><g transform="translate(170.282096, 148.766459)"><g><path d="M 4.578125 0.125 C 4.003906 0.125 3.476562 0.0195312 3 -0.1875 C 2.519531 -0.40625 2.097656 -0.695312 1.734375 -1.0625 C 1.378906 -1.425781 1.097656 -1.851562 0.890625 -2.34375 C 0.691406 -2.84375 0.59375 -3.382812 0.59375 -3.96875 C 0.59375 -4.550781 0.695312 -5.097656 0.90625 -5.609375 C 1.125 -6.117188 1.414062 -6.5625 1.78125 -6.9375 C 2.144531 -7.3125 2.566406 -7.601562 3.046875 -7.8125 C 3.535156 -8.03125 4.054688 -8.140625 4.609375 -8.140625 C 5.203125 -8.140625 5.757812 -8.015625 6.28125 -7.765625 C 6.800781 -7.515625 7.25 -7.171875 7.625 -6.734375 L 6.984375 -6.203125 C 6.671875 -6.554688 6.3125 -6.828125 5.90625 -7.015625 C 5.5 -7.210938 5.054688 -7.3125 4.578125 -7.3125 C 4.128906 -7.3125 3.71875 -7.226562 3.34375 -7.0625 C 2.96875 -6.90625 2.644531 -6.675781 2.375 -6.375 C 2.101562 -6.082031 1.890625 -5.734375 1.734375 -5.328125 C 1.578125 -4.929688 1.5 -4.492188 1.5 -4.015625 C 1.5 -3.535156 1.578125 -3.09375 1.734375 -2.6875 C 1.890625 -2.28125 2.101562 -1.929688 2.375 -1.640625 C 2.65625 -1.347656 2.988281 -1.117188 3.375 -0.953125 C 3.757812 -0.785156 4.175781 -0.703125 4.625 -0.703125 C 5.132812 -0.703125 5.59375 -0.800781 6 -1 C 6.40625 -1.195312 6.75 -1.46875 7.03125 -1.8125 L 7.625 -1.296875 C 7.25 -0.859375 6.800781 -0.507812 6.28125 -0.25 C 5.757812 0 5.191406 0.125 4.578125 0.125 Z M 4.578125 0.125 "/></g></g></g><g fill="#000000" fill-opacity="1"><g transform="translate(182.038451, 148.766459)"><g><path d="M 1.078125 -8.015625 L 1.921875 -8.015625 L 1.921875 -0.78125 L 5.140625 -0.78125 L 5.140625 0 L 1.078125 0 Z M 1.078125 -8.015625 "/></g></g></g><g fill="#000000" fill-opacity="1"><g transform="translate(191.316667, 148.766459)"><g><path d="M 4.609375 0.125 C 4.054688 0.125 3.535156 0.015625 3.046875 -0.203125 C 2.566406 -0.421875 2.144531 -0.71875 1.78125 -1.09375 C 1.414062 -1.46875 1.125 -1.898438 0.90625 -2.390625 C 0.695312 -2.890625 0.59375 -3.429688 0.59375 -4.015625 C 0.59375 -4.578125 0.695312 -5.109375 0.90625 -5.609375 C 1.125 -6.117188 1.414062 -6.5625 1.78125 -6.9375 C 2.144531 -7.3125 2.566406 -7.601562 3.046875 -7.8125 C 3.535156 -8.03125 4.054688 -8.140625 4.609375 -8.140625 C 5.160156 -8.140625 5.675781 -8.03125 6.15625 -7.8125 C 6.644531 -7.601562 7.070312 -7.3125 7.4375 -6.9375 C 7.800781 -6.5625 8.085938 -6.125 8.296875 -5.625 C 8.515625 -5.125 8.625 -4.585938 8.625 -4.015625 C 8.625 -3.441406 8.515625 -2.90625 8.296875 -2.40625 C 8.085938 -1.90625 7.800781 -1.46875 7.4375 -1.09375 C 7.070312 -0.71875 6.644531 -0.421875 6.15625 -0.203125 C 5.675781 0.015625 5.160156 0.125 4.609375 0.125 Z M 4.609375 -0.703125 C 5.046875 -0.703125 5.457031 -0.785156 5.84375 -0.953125 C 6.226562 -1.117188 6.554688 -1.347656 6.828125 -1.640625 C 7.097656 -1.941406 7.3125 -2.289062 7.46875 -2.6875 C 7.632812 -3.09375 7.71875 -3.535156 7.71875 -4.015625 C 7.71875 -4.484375 7.632812 -4.914062 7.46875 -5.3125 C 7.3125 -5.71875 7.097656 -6.066406 6.828125 -6.359375 C 6.554688 -6.660156 6.226562 -6.894531 5.84375 -7.0625 C 5.457031 -7.226562 5.046875 -7.3125 4.609375 -7.3125 C 4.160156 -7.3125 3.742188 -7.226562 3.359375 -7.0625 C 2.984375 -6.894531 2.65625 -6.660156 2.375 -6.359375 C 2.101562 -6.066406 1.890625 -5.71875 1.734375 -5.3125 C 1.578125 -4.914062 1.5 -4.484375 1.5 -4.015625 C 1.5 -3.535156 1.578125 -3.09375 1.734375 -2.6875 C 1.890625 -2.289062 2.101562 -1.941406 2.375 -1.640625 C 2.65625 -1.347656 2.984375 -1.117188 3.359375 -0.953125 C 3.742188 -0.785156 4.160156 -0.703125 4.609375 -0.703125 Z M 4.609375 -0.703125 "/></g></g></g><g fill="#000000" fill-opacity="1"><g transform="translate(204.126537, 148.766459)"><g><path d="M 3 -7.234375 L 0.359375 -7.234375 L 0.359375 -8.015625 L 6.46875 -8.015625 L 6.46875 -7.234375 L 3.828125 -7.234375 L 3.828125 0 L 3 0 Z M 3 -7.234375 "/></g></g></g><g fill="#000000" fill-opacity="1"><g transform="translate(214.542066, 148.766459)"><g><path d="M 1.078125 -8.015625 L 1.921875 -8.015625 L 1.921875 -4.421875 L 6.21875 -4.421875 L 6.21875 -8.015625 L 7.0625 -8.015625 L 7.0625 0 L 6.21875 0 L 6.21875 -3.65625 L 1.921875 -3.65625 L 1.921875 0 L 1.078125 0 Z M 1.078125 -8.015625 "/></g></g></g><g fill="#000000" fill-opacity="1"><g transform="translate(226.274478, 148.766459)"><g><path d="M 1.078125 -8.015625 L 1.921875 -8.015625 L 1.921875 0 L 1.078125 0 Z M 1.078125 -8.015625 "/></g></g></g><g fill="#000000" fill-opacity="1"><g transform="translate(232.859057, 148.766459)"><g><path d="M 1.890625 -6.234375 L 1.890625 0 L 1.078125 0 L 1.078125 -8.265625 L 1.3125 -8.265625 L 6.71875 -1.78125 L 6.71875 -8.015625 L 7.546875 -8.015625 L 7.546875 0.234375 L 7.296875 0.234375 Z M 1.890625 -6.234375 "/></g></g></g><g fill="#000000" fill-opacity="1"><g transform="translate(245.070336, 148.766459)"><g><path d="M 4.578125 0.125 C 4.023438 0.125 3.503906 0.0195312 3.015625 -0.1875 C 2.535156 -0.40625 2.113281 -0.695312 1.75 -1.0625 C 1.394531 -1.4375 1.113281 -1.867188 0.90625 -2.359375 C 0.695312 -2.859375 0.59375 -3.394531 0.59375 -3.96875 C 0.59375 -4.539062 0.695312 -5.082031 0.90625 -5.59375 C 1.125 -6.101562 1.414062 -6.546875 1.78125 -6.921875 C 2.144531 -7.304688 2.566406 -7.601562 3.046875 -7.8125 C 3.535156 -8.03125 4.054688 -8.140625 4.609375 -8.140625 C 5.203125 -8.140625 5.757812 -8.015625 6.28125 -7.765625 C 6.800781 -7.515625 7.25 -7.171875 7.625 -6.734375 L 6.984375 -6.203125 C 6.671875 -6.554688 6.3125 -6.828125 5.90625 -7.015625 C 5.5 -7.210938 5.0625 -7.3125 4.59375 -7.3125 C 4.144531 -7.3125 3.734375 -7.226562 3.359375 -7.0625 C 2.984375 -6.894531 2.65625 -6.660156 2.375 -6.359375 C 2.101562 -6.066406 1.890625 -5.71875 1.734375 -5.3125 C 1.578125 -4.914062 1.5 -4.484375 1.5 -4.015625 C 1.5 -3.535156 1.578125 -3.09375 1.734375 -2.6875 C 1.890625 -2.289062 2.101562 -1.941406 2.375 -1.640625 C 2.65625 -1.347656 2.988281 -1.117188 3.375 -0.953125 C 3.757812 -0.785156 4.175781 -0.703125 4.625 -0.703125 C 5.125 -0.703125 5.578125 -0.800781 5.984375 -1 C 6.398438 -1.195312 6.75 -1.46875 7.03125 -1.8125 L 7.03125 -3.53125 L 4.609375 -3.53125 L 4.609375 -4.3125 L 7.859375 -4.3125 L 7.859375 -1.65625 C 7.472656 -1.082031 6.992188 -0.640625 6.421875 -0.328125 C 5.847656 -0.0234375 5.234375 0.125 4.578125 0.125 Z M 4.578125 0.125 "/></g></g></g></svg>