<svg width="99" height="31" viewBox="0 0 99 31" fill="none" xmlns="http://www.w3.org/2000/svg">
<path d="M25.5155 30.5342H25.5523L34.8966 6.81453H34.3563L30.7616 15.9439C30.4393 16.7696 29.6842 17.2025 28.9659 17.2025C28.2107 17.2025 27.4556 16.7696 27.1332 15.9807L26.4855 14.363C24.6161 9.79829 20.1619 6.81453 15.2012 6.81453L17.3224 11.7015L15.5972 16.0881C15.2749 16.9139 14.5198 17.3099 13.7646 17.3099C13.0463 17.3099 12.2911 16.9139 11.9688 16.0881L11.2474 14.3998C9.38106 9.83513 4.96066 6.81453 0 6.81453L10.3143 30.5342H10.3511L17.611 12.3492L25.5155 30.5342Z" fill="black"/>
<path d="M57.6773 21.8377H57.2445C56.741 27.0839 53.5424 29.2419 49.914 29.2419C45.3156 29.2419 42.6203 26.473 42.6203 18.5316H57.3519C57.5699 9.90573 52.4312 6.38476 46.4636 6.38476C39.2774 6.38476 34.2462 11.2012 34.2462 18.4242C34.2462 25.6841 39.6734 30.5342 47.5779 30.5342C52.9315 30.5342 57.137 27.8759 57.6773 21.8377ZM46.4268 6.85136C49.9508 6.85136 49.6991 14.2187 49.6991 18.0988H42.6203C42.6541 10.8389 43.7316 6.85136 46.4268 6.85136Z" fill="black"/>
<path d="M74.9963 21.8746H74.5297C74.3855 26.9764 71.7977 28.5573 70.2168 28.5573C68.5284 28.5573 67.9882 27.5873 67.9882 25.2881V7.3548H74.5297V6.8882H67.9882C67.9882 3.54528 65.293 0.850067 61.95 0.850067H60.0806V6.8882H56.9188V7.3548H60.0806V22.9152C60.0806 28.8459 64.0344 30.5342 67.5584 30.5342C71.0425 30.5342 74.9963 28.1613 74.9963 21.8746Z" fill="black"/>
<path d="M91.3472 6.85137H91.0955V18.458C91.0955 21.3711 90.4478 28.3425 86.2791 28.3425C84.4096 28.3425 83.547 27.047 83.547 24.3181V14.5072C83.547 10.2649 80.0967 6.85137 75.8912 6.85137H75.6425V22.3043C75.6425 27.265 78.3377 30.5342 83.2585 30.5342C88.2192 30.5342 90.592 27.0839 91.3472 22.1601V22.8784C91.3472 27.1207 94.7945 30.5342 99 30.5342V14.5072C99 10.2649 95.5865 6.85137 91.3472 6.85137Z" fill="black"/>
</svg>
